<?xml version="1.0" encoding="UTF-8"?>
<svg id="Camada_1" xmlns="http://www.w3.org/2000/svg" version="1.1" viewBox="0 0 100 100">
  <path fill="#000000" d="M95.13,35.64v37.53c0,14.08-10.68,25.66-24.34,26.99h-5.27c-13.51-1.31-24.11-12.65-24.34-26.52-.01-.15-.01-.31-.01-.47s0-.32.01-.47c.25-4.91,4.28-8.81,9.22-8.81s9.23,4.16,9.23,9.29c0,4.73,3.81,8.56,8.52,8.56s8.51-3.83,8.51-8.56v-37.53c0-5.13,4.13-9.28,9.23-9.28s9.23,4.15,9.23,9.28Z"/>
  <path fill="#000000" d="M59.58,54.72v18.56c0,5.14-4.14,9.3-9.25,9.3-2.51,0-4.81-1.01-6.48-2.65-1.71-1.69-2.78-4.05-2.78-6.65v-18.56c0-2.71-1.14-5.15-2.96-6.87-.1-.09-.2-.2-.32-.29-1.63-1.41-3.76-2.27-6.09-2.27-4.67,0-8.53,3.44-9.24,7.93-.08.48-.12.99-.12,1.49s.04,1.01.12,1.49v17.2c0,2.58-1.05,4.91-2.74,6.6-1.67,1.66-3.97,2.69-6.5,2.69-5.1,0-9.24-4.16-9.24-9.29V18.18c0-4.36,2.99-8.02,7.03-9.02h4.43c4.03,1,7.02,4.66,7.02,9.02v10.12c2.89-1.03,6-1.59,9.24-1.59,6.85,0,13.13,2.48,17.98,6.62t.02.01c.43.36.85.74,1.26,1.14.02.02.03.04.05.05,5.28,5.09,8.56,12.25,8.56,20.18Z"/>
  <circle fill="#47C100" cx="85.97" cy="9.16" r="9.16"/>
</svg>
