<?xml version="1.0" encoding="UTF-8"?>
<svg id="Camada_1" xmlns="http://www.w3.org/2000/svg" version="1.1" viewBox="0 0 353 116">
  <!-- Generator: Adobe Illustrator 29.2.1, SVG Export Plug-In . SVG Version: 2.1.0 Build 116)  -->
  <defs>
    <style>
      .st0 {
        fill: #47c100;
      }
    </style>
  </defs>
  <path d="M352.59,41.65v43.34c0,16.25-12.33,29.63-28.11,31.16h-6.08c-15.6-1.51-27.83-14.6-28.11-30.61-.01-.18-.01-.36-.01-.55s0-.37.01-.55c.28-5.67,4.94-10.18,10.65-10.18s10.66,4.8,10.66,10.72c0,5.46,4.4,9.88,9.84,9.88s9.83-4.42,9.83-9.88v-43.34c0-5.92,4.77-10.71,10.66-10.71s10.66,4.79,10.66,10.71Z"/>
  <path d="M311.55,63.68v21.42c0,5.93-4.78,10.74-10.68,10.74-2.9,0-5.55-1.17-7.48-3.06-1.98-1.95-3.21-4.67-3.21-7.68v-21.42c0-3.13-1.31-5.94-3.42-7.93-.12-.11-.24-.23-.37-.33-1.88-1.63-4.34-2.62-7.03-2.62-5.39,0-9.85,3.97-10.67,9.15-.09.56-.14,1.14-.14,1.72s.05,1.17.14,1.72v19.85c0,2.98-1.21,5.67-3.16,7.62-1.93,1.91-4.58,3.1-7.5,3.1-5.89,0-10.67-4.8-10.67-10.72V21.49c0-5.03,3.45-9.26,8.11-10.41h5.11c4.65,1.15,8.1,5.39,8.1,10.41v11.69c3.34-1.19,6.93-1.83,10.67-1.83,7.91,0,15.17,2.87,20.76,7.64t.02.01c.5.42.98.86,1.45,1.32.02.02.04.05.06.06,6.09,5.87,9.88,14.15,9.88,23.3Z"/>
  <circle class="st0" cx="342.02" cy="11.07" r="10.57"/>
  <path d="M238.89,21.83v63.54c0,5.28-3.85,9.67-8.9,10.5h-3.5c-5.06-.84-8.91-5.21-8.91-10.5v-21.23h-31.43v21.05c-.02,5.86-4.77,10.6-10.65,10.6s-10.62-4.74-10.65-10.6V21.79c.02-5.86,4.77-10.61,10.65-10.61s10.62,4.75,10.65,10.61v21.05h31.43v-21c0-5.88,4.77-10.66,10.66-10.66s10.65,4.77,10.65,10.66Z"/>
  <path d="M155.99,21.79v63.43c0,5.88-4.77,10.66-10.66,10.66-3.1,0-5.88-1.32-7.83-3.44l-.05.05-34.17-41.13v33.87c0,5.88-4.77,10.66-10.65,10.66s-10.66-4.77-10.66-10.66V21.82c0-5.87,4.77-10.65,10.66-10.65,3.54,0,6.69,1.74,8.63,4.41l33.43,40.18V21.79c.02-5.86,4.79-10.61,10.65-10.61s10.63,4.75,10.66,10.61Z"/>
  <path d="M75.07,76.45c0,2.58-.91,4.94-2.43,6.78,0,.01-.01.01-.01.02-.56.56-1.12,1.1-1.7,1.63-.02.01-.04.02-.05.05-7.54,6.84-17.55,11.01-28.52,11.01-23.43,0-42.42-18.99-42.42-42.42,0-23.42,18.99-42.42,42.42-42.42,10.54,0,20.18,3.84,27.6,10.21.01.01.04.02.05.04.52.45,1.03.91,1.51,1.37.01.01.02.02.02.04,1.7,1.89,2.74,4.38,2.74,7.13,0,5.88-4.76,10.65-10.65,10.65-2.51,0-4.8-.86-6.62-2.32-.32-.31-.65-.6-.99-.89-3.7-3.12-8.47-5-13.67-5-11.71,0-21.21,9.49-21.21,21.2,0,11.71,9.5,21.21,21.21,21.21,5.45,0,10.42-2.06,14.18-5.45.33-.3.66-.6.98-.93,1.86-1.6,4.28-2.55,6.9-2.55,5.88,0,10.66,4.77,10.66,10.65Z"/>
</svg>